<?xml version="1.0" encoding="iso-8859-1"?>
<!-- Generator: Adobe Illustrator 19.0.0, SVG Export Plug-In . SVG Version: 6.00 Build 0)  -->
<svg version="1.1" id="Capa_1" xmlns="http://www.w3.org/2000/svg" xmlns:xlink="http://www.w3.org/1999/xlink" x="0px" y="0px"
	 viewBox="0 0 480 480" style="enable-background:new 0 0 480 480;" xml:space="preserve">
<path id="XMLID_2137_" d="M413.897,296.688c-0.326,1.354-0.666,2.704-1.022,4.049c-1.187,4.48-5.234,7.443-9.66,7.443
	c-0.848,0-1.708-0.109-2.566-0.336c-5.339-1.414-8.521-6.888-7.107-12.227c0.317-1.2,0.622-2.404,0.913-3.613
	c1.293-5.369,6.694-8.671,12.063-7.38C411.887,285.918,415.191,291.319,413.897,296.688z M364.443,122.818
	c-3.966-3.842-10.297-3.743-14.141,0.223c-3.843,3.966-3.743,10.297,0.223,14.141C382.43,168.098,400,207.314,400,247.607
	c0,5.522,4.478,10,10,10s10-4.478,10-10C420,201.853,400.27,157.535,364.443,122.818z M480,380c0,55.141-44.859,100-100,100H100
	C44.859,480,0,435.141,0,380c0-5.522,4.478-10,10-10h136.117c34.396-19.046,62.917-45.765,83.883-77.351c0-0.006,0-0.013,0-0.019V10
	c0-5.522,4.478-10,10-10s10,4.478,10,10v10.177c60.971,2.491,117.91,27.675,160.935,71.321C455.473,136.68,480,196.505,480,259.954
	c0,38.459-9.184,76.159-26.691,110.046H470C475.522,370,480,374.478,480,380z M250,255.928c12.986-29.761,20-62.334,20-95.974
	c0-33.237-6.854-65.915-20-96.034V255.928z M183.234,370h247.281C449.821,336.649,460,298.723,460,259.954
	c0-113.453-87.646-208.165-198.76-218.958C280.103,77.628,290,118.389,290,159.954C290,243.744,249.836,321.428,183.234,370z
	 M459.378,390h-23.023c-0.109,0.003-0.223,0.003-0.336,0H148.878c-0.131,0.002-0.262,0.002-0.393,0H20.622
	c4.938,39.408,38.652,70,79.378,70h280C420.726,460,454.44,429.408,459.378,390z"/>
<g>
</g>
<g>
</g>
<g>
</g>
<g>
</g>
<g>
</g>
<g>
</g>
<g>
</g>
<g>
</g>
<g>
</g>
<g>
</g>
<g>
</g>
<g>
</g>
<g>
</g>
<g>
</g>
<g>
</g>
</svg>
